<?xml version="1.0" encoding="utf-8"?>
<!-- Generator: Adobe Illustrator 26.0.0, SVG Export Plug-In . SVG Version: 6.00 Build 0)  -->
<svg version="1.1" id="Capa_1" xmlns="http://www.w3.org/2000/svg" xmlns:xlink="http://www.w3.org/1999/xlink" x="0px" y="0px"
	 viewBox="0 0 623.4 215.64" style="enable-background:new 0 0 623.4 215.64;" xml:space="preserve">
<style type="text/css">
	.st0{fill:#E7233C;}
	.st1{fill:#FFFFFF;}
</style>
<g>
	<g>
		<g>
			<path class="st0" d="M85.2,118.98H57.19V42.36H85.2V118.98z"/>
			<path class="st0" d="M119.6,120.01h-1.13c-18.54,0-25.64-8.75-25.64-17.82v-1.24c0-9.27,5.97-14.73,22.45-16.06l26.67-2.37
				c2.37-0.31,3.09-1.13,3.09-2.68c0-2.06-1.13-4.22-12.05-4.22h-0.41c-11.84,0-12.15,3.91-12.46,5.66H94.16v-0.62
				c0-7.41,2.27-18.54,35.53-18.54h5.77c34.6,0,36.97,10.3,36.97,17.82v20.49c0,1.54,0.41,2.37,2.37,2.37h2.99v16.17h-23.27
				c-4.84,0-8.14-2.57-8.96-7.41C142.87,114.24,135.76,120.01,119.6,120.01z M145.03,92.82l-18.54,3.3c-4.84,0.82-6.8,1.96-6.8,4.74
				v0.1c0,2.57,1.85,5.66,8.75,5.66c10.3,0,16.58-5.66,16.58-11.43V92.82z"/>
			<path class="st0" d="M212.7,118.98h-28.01V42.36h28.01V118.98z"/>
			<g>
				<path class="st1" d="M304.05,99.51c0,7.52-4.94,21.01-38,21.01h-5.87c-29.56,0-39.03-13.8-39.03-28.32v-2.27
					c0-14.21,8.44-27.91,38.41-27.91h6.28c32.54,0,38.51,16.37,38.51,29.86v3.81H243.7c1.34,6.49,6.9,10.81,19.57,10.81h0.1
					c15.24,0,17.71-5.77,18.02-7.11h22.66V99.51z M262.54,74.9c-11.53,0-16.68,3.5-18.43,9.37h37.07c-1.54-5.87-6.9-9.37-18.54-9.37
					H262.54z"/>
			</g>
			<g>
				<path class="st1" d="M303.03,118.98l28.94-28.11l-28.01-27.29h27.08l14.52,14.52l14.52-14.52h25.74l-27.8,26.88l28.73,28.53
					H360.8l-16.27-15.86l-15.96,15.86H303.03z"/>
			</g>
			<g>
				<path class="st1" d="M415.49,63.57v7.93c2.47-2.16,11.33-9.27,28.11-9.27h1.85c25.13,0,33.47,12.56,33.47,27.8V92
					c0,14.52-8.65,28.32-34.19,28.32h-1.65c-16.48,0-25.74-7.11-27.6-9.17v27.19h-22.97V63.57H415.49z M415.49,91.28
					c0,6.9,6.49,14.42,20.49,14.42h0.51c14.83,0,18.95-7.72,18.95-14.42v-0.41c0-7.11-4.12-14.31-18.95-14.31h-0.51
					c-14.31,0-20.49,7.21-20.49,14.31V91.28z"/>
			</g>
			<g>
				<path class="st1" d="M523.31,120.52c-32.13,0-39.85-15.86-39.85-28.63v-1.85c0-12.77,7.62-28.01,39.75-28.01h7.31
					c33.78,0,39.65,15.45,39.65,28.01v1.85c0,12.77-5.46,28.63-39.65,28.63H523.31z M546.9,91.28v-0.52
					c0-6.9-4.43-14.01-19.88-14.01h-0.1c-15.65,0-19.98,7-19.98,14.01v0.52c0,6.49,4.33,14.31,19.98,14.31
					C542.57,105.59,546.9,97.76,546.9,91.28z"/>
			</g>
		</g>
	</g>
	<g>
		<path class="st1" d="M116.41,169.47v-6.77v-6.77h1.43h1.43v5.59v5.59h2.9h2.9v1.18v1.18h-4.33H116.41z"/>
		<path class="st1" d="M134.65,169.67c-0.32,0-0.63-0.03-0.92-0.09c-0.29-0.06-0.56-0.14-0.81-0.26c-0.25-0.11-0.48-0.25-0.68-0.42
			s-0.37-0.36-0.52-0.59c-0.15-0.22-0.26-0.47-0.33-0.75c-0.07-0.28-0.11-0.59-0.11-0.92c0-0.28,0.03-0.54,0.08-0.78
			s0.13-0.45,0.23-0.64c0.1-0.19,0.23-0.36,0.37-0.52c0.14-0.15,0.3-0.29,0.48-0.41c0.18-0.12,0.37-0.22,0.57-0.31
			c0.2-0.09,0.42-0.16,0.65-0.22c0.23-0.06,0.46-0.11,0.7-0.15s0.49-0.07,0.74-0.1c0.3-0.03,0.56-0.06,0.8-0.09
			c0.24-0.03,0.45-0.06,0.63-0.08c0.18-0.03,0.34-0.06,0.47-0.1c0.13-0.04,0.24-0.09,0.32-0.14c0.08-0.06,0.14-0.12,0.18-0.2
			c0.04-0.08,0.06-0.18,0.06-0.28v-0.02v-0.02c0-0.21-0.03-0.39-0.1-0.56c-0.07-0.16-0.16-0.3-0.29-0.41
			c-0.13-0.11-0.29-0.2-0.47-0.26s-0.4-0.09-0.64-0.09c-0.25,0-0.48,0.03-0.68,0.08s-0.38,0.14-0.53,0.25
			c-0.15,0.11-0.27,0.24-0.37,0.38c-0.1,0.14-0.17,0.29-0.22,0.46l-1.3-0.11l-1.3-0.11c0.07-0.31,0.17-0.6,0.3-0.86
			c0.13-0.27,0.29-0.51,0.49-0.74c0.19-0.23,0.42-0.43,0.67-0.6c0.25-0.17,0.53-0.32,0.84-0.44c0.31-0.12,0.64-0.21,0.99-0.27
			c0.36-0.06,0.74-0.09,1.14-0.09c0.28,0,0.56,0.02,0.83,0.05c0.27,0.03,0.53,0.08,0.79,0.15c0.26,0.07,0.5,0.15,0.73,0.25
			c0.23,0.1,0.45,0.22,0.65,0.36c0.2,0.14,0.38,0.3,0.54,0.47c0.16,0.18,0.3,0.37,0.41,0.59c0.12,0.22,0.2,0.46,0.26,0.71
			c0.06,0.26,0.09,0.54,0.09,0.84v3.42v3.42h-1.33h-1.33v-0.7v-0.7h-0.04h-0.04c-0.08,0.16-0.18,0.31-0.29,0.45
			c-0.11,0.14-0.23,0.27-0.37,0.39s-0.29,0.23-0.45,0.32c-0.16,0.09-0.34,0.17-0.53,0.24c-0.19,0.07-0.4,0.12-0.62,0.15
			C135.13,169.65,134.9,169.67,134.65,169.67z M135.45,167.72c0.21,0,0.4-0.02,0.59-0.06s0.35-0.1,0.51-0.19
			c0.16-0.08,0.3-0.18,0.42-0.29s0.23-0.24,0.32-0.38c0.09-0.14,0.16-0.29,0.2-0.45c0.05-0.16,0.07-0.33,0.07-0.51v-0.54v-0.54
			c-0.04,0.03-0.1,0.06-0.16,0.08c-0.06,0.03-0.13,0.05-0.2,0.07s-0.16,0.05-0.24,0.07c-0.09,0.02-0.18,0.04-0.27,0.06
			c-0.1,0.02-0.19,0.04-0.29,0.05c-0.09,0.02-0.19,0.03-0.28,0.05c-0.09,0.01-0.18,0.03-0.27,0.04s-0.17,0.02-0.24,0.04
			c-0.17,0.02-0.32,0.06-0.46,0.09c-0.14,0.04-0.28,0.08-0.4,0.14c-0.12,0.05-0.23,0.11-0.33,0.19c-0.1,0.07-0.18,0.15-0.25,0.24
			c-0.07,0.09-0.12,0.19-0.15,0.3c-0.03,0.11-0.05,0.23-0.05,0.36c0,0.19,0.03,0.36,0.1,0.51c0.07,0.15,0.17,0.27,0.31,0.37
			c0.14,0.1,0.3,0.17,0.48,0.22S135.24,167.72,135.45,167.72z"/>
		<path class="st1" d="M152.78,159.32v1.06v1.06h-3.06h-3.06v-1.06v-1.06h3.06H152.78z M148.06,156.89h1.41h1.41v4.73v4.73
			c0,0.13,0.01,0.25,0.03,0.35s0.05,0.19,0.09,0.26c0.04,0.07,0.09,0.13,0.14,0.18s0.12,0.09,0.19,0.12s0.15,0.05,0.23,0.06
			c0.08,0.01,0.17,0.02,0.27,0.02c0.07,0,0.13,0,0.2-0.01s0.13-0.02,0.2-0.03c0.07-0.01,0.12-0.02,0.18-0.03
			c0.05-0.01,0.09-0.02,0.13-0.02l0.22,1.05l0.22,1.05c-0.07,0.02-0.15,0.05-0.25,0.07s-0.21,0.05-0.34,0.08
			c-0.13,0.03-0.27,0.05-0.42,0.07c-0.15,0.02-0.32,0.03-0.51,0.04c-0.34,0.01-0.66,0-0.95-0.05s-0.57-0.12-0.83-0.22
			c-0.25-0.1-0.48-0.24-0.68-0.4s-0.37-0.35-0.51-0.57c-0.14-0.22-0.25-0.46-0.32-0.74c-0.07-0.28-0.1-0.58-0.1-0.91v-4.92V156.89z"
			/>
		<path class="st1" d="M160.87,158.02c-0.21,0-0.4-0.03-0.58-0.1c-0.18-0.07-0.34-0.17-0.49-0.31c-0.15-0.14-0.26-0.29-0.33-0.46
			c-0.07-0.17-0.11-0.35-0.11-0.55c0-0.19,0.04-0.37,0.11-0.54s0.19-0.32,0.33-0.46c0.15-0.14,0.31-0.24,0.49-0.31
			s0.37-0.11,0.58-0.11c0.21,0,0.4,0.04,0.58,0.11c0.18,0.07,0.34,0.18,0.49,0.31c0.15,0.14,0.26,0.29,0.33,0.46
			s0.11,0.35,0.11,0.54c0,0.2-0.04,0.38-0.11,0.55c-0.07,0.17-0.19,0.32-0.33,0.46c-0.15,0.14-0.31,0.24-0.49,0.31
			C161.27,157.98,161.08,158.02,160.87,158.02z M159.45,169.47v-5.07v-5.07h1.41h1.41v5.07v5.07h-1.41H159.45z"/>
		<path class="st1" d="M172.17,163.61v2.93v2.93h-1.41h-1.41v-5.07v-5.07h1.34h1.34v0.9v0.9h0.06h0.06c0.11-0.3,0.26-0.56,0.45-0.79
			c0.19-0.23,0.41-0.44,0.68-0.61c0.26-0.17,0.56-0.3,0.88-0.39c0.32-0.09,0.67-0.13,1.05-0.13c0.35,0,0.68,0.04,0.99,0.12
			c0.31,0.08,0.59,0.19,0.85,0.35c0.26,0.15,0.49,0.34,0.7,0.56c0.2,0.22,0.38,0.47,0.52,0.76c0.15,0.29,0.25,0.6,0.33,0.94
			c0.07,0.34,0.11,0.71,0.11,1.1v3.23v3.23h-1.41h-1.41v-2.98v-2.98c0-0.31-0.04-0.59-0.11-0.83s-0.2-0.45-0.36-0.63
			c-0.16-0.18-0.35-0.31-0.57-0.39c-0.22-0.09-0.47-0.13-0.75-0.13c-0.19,0-0.37,0.02-0.54,0.06c-0.17,0.04-0.32,0.1-0.47,0.18
			c-0.14,0.08-0.27,0.18-0.39,0.3c-0.11,0.12-0.21,0.26-0.29,0.41c-0.08,0.15-0.14,0.33-0.18,0.51
			C172.19,163.19,172.17,163.39,172.17,163.61z"/>
		<path class="st1" d="M197.3,169.47h-1.53h-1.53l2.34-6.77l2.34-6.77h1.84h1.84l2.33,6.77l2.33,6.77h-1.53h-1.53l-1.7-5.22
			l-1.7-5.22h-0.05h-0.05l-1.7,5.22L197.3,169.47z M197.11,164.15h3.62h3.62v1.12v1.12h-3.62h-3.62v-1.12V164.15z"/>
		<path class="st1" d="M213.67,169.47v-5.07v-5.07h1.34h1.34v0.9v0.9h0.06h0.06c0.11-0.3,0.25-0.56,0.42-0.8
			c0.18-0.23,0.39-0.44,0.63-0.61c0.25-0.17,0.52-0.3,0.81-0.39s0.61-0.13,0.96-0.13c0.35,0,0.67,0.04,0.97,0.13
			c0.3,0.09,0.57,0.22,0.81,0.39c0.24,0.17,0.45,0.38,0.61,0.61c0.16,0.23,0.28,0.5,0.37,0.79h0.05h0.05
			c0.1-0.29,0.25-0.55,0.44-0.79s0.42-0.44,0.69-0.61c0.27-0.18,0.57-0.31,0.89-0.39c0.32-0.09,0.67-0.13,1.04-0.13
			c0.47,0,0.9,0.08,1.29,0.23c0.38,0.15,0.73,0.38,1.02,0.68c0.3,0.3,0.52,0.66,0.67,1.09c0.15,0.43,0.22,0.91,0.22,1.46v3.41v3.41
			h-1.4h-1.4v-3.14v-3.14c0-0.28-0.04-0.53-0.11-0.74c-0.07-0.21-0.19-0.39-0.34-0.53c-0.15-0.14-0.32-0.25-0.51-0.32
			s-0.39-0.11-0.62-0.11c-0.26,0-0.48,0.04-0.68,0.12c-0.2,0.08-0.37,0.2-0.51,0.36c-0.14,0.16-0.25,0.35-0.32,0.56
			s-0.11,0.45-0.11,0.72v3.1v3.1h-1.36h-1.36v-3.17v-3.17c0-0.25-0.04-0.47-0.11-0.67c-0.07-0.2-0.18-0.37-0.32-0.52
			c-0.14-0.15-0.31-0.26-0.49-0.33c-0.19-0.07-0.4-0.11-0.63-0.11c-0.16,0-0.3,0.02-0.45,0.06s-0.27,0.1-0.4,0.18
			c-0.12,0.08-0.24,0.17-0.34,0.28c-0.1,0.11-0.18,0.23-0.26,0.37c-0.07,0.14-0.13,0.29-0.16,0.46s-0.05,0.34-0.05,0.53v3.05v3.05
			h-1.41H213.67z"/>
		<path class="st1" d="M240.1,169.67c-0.52,0-1.01-0.05-1.46-0.16c-0.45-0.11-0.86-0.27-1.24-0.48c-0.38-0.21-0.71-0.47-1-0.77
			s-0.53-0.65-0.74-1.04c-0.2-0.39-0.35-0.82-0.46-1.28c-0.1-0.46-0.15-0.96-0.15-1.5c0-0.52,0.05-1.01,0.15-1.47
			c0.1-0.46,0.25-0.88,0.46-1.28c0.2-0.39,0.45-0.74,0.73-1.05c0.29-0.31,0.61-0.57,0.98-0.79c0.37-0.22,0.77-0.38,1.2-0.49
			c0.43-0.11,0.9-0.17,1.4-0.17c0.34,0,0.66,0.03,0.97,0.08c0.31,0.05,0.61,0.13,0.9,0.24c0.29,0.11,0.56,0.24,0.82,0.4
			s0.49,0.35,0.71,0.56c0.22,0.21,0.41,0.45,0.58,0.72s0.31,0.56,0.44,0.89c0.12,0.32,0.21,0.67,0.27,1.05
			c0.06,0.38,0.09,0.78,0.09,1.21v0.39v0.39h-4.28h-4.28v-0.87v-0.87h2.96h2.96c0-0.2-0.02-0.39-0.07-0.57
			c-0.04-0.18-0.11-0.35-0.2-0.5c-0.09-0.16-0.19-0.3-0.31-0.42c-0.12-0.12-0.26-0.23-0.42-0.32c-0.16-0.09-0.32-0.16-0.5-0.2
			c-0.18-0.04-0.37-0.07-0.58-0.07c-0.21,0-0.41,0.02-0.6,0.07c-0.19,0.05-0.37,0.12-0.53,0.22c-0.16,0.1-0.31,0.21-0.44,0.34
			c-0.13,0.13-0.24,0.28-0.33,0.44c-0.09,0.16-0.16,0.34-0.21,0.52c-0.05,0.18-0.07,0.37-0.08,0.57v0.83v0.83
			c0,0.25,0.02,0.48,0.07,0.7s0.12,0.42,0.21,0.6c0.09,0.18,0.21,0.34,0.34,0.49c0.13,0.14,0.29,0.26,0.46,0.36
			c0.17,0.1,0.36,0.17,0.56,0.22c0.2,0.05,0.42,0.07,0.66,0.07c0.16,0,0.31-0.01,0.45-0.03c0.14-0.02,0.28-0.06,0.41-0.1
			c0.13-0.04,0.25-0.1,0.36-0.16c0.11-0.07,0.21-0.14,0.31-0.23c0.09-0.09,0.17-0.19,0.24-0.29s0.13-0.23,0.18-0.35l1.3,0.09
			l1.3,0.09c-0.07,0.31-0.17,0.61-0.3,0.88c-0.14,0.27-0.3,0.52-0.51,0.76c-0.2,0.23-0.44,0.44-0.7,0.62
			c-0.26,0.18-0.55,0.34-0.87,0.46c-0.32,0.13-0.67,0.23-1.03,0.29S240.52,169.67,240.1,169.67z"/>
		<path class="st1" d="M251.43,169.47v-5.07v-5.07h1.36h1.36v0.89v0.89h0.05h0.05c0.09-0.31,0.22-0.59,0.37-0.83
			c0.15-0.24,0.34-0.44,0.56-0.6c0.22-0.16,0.45-0.28,0.7-0.36c0.25-0.08,0.52-0.12,0.8-0.12c0.07,0,0.14,0,0.22,0.01
			s0.15,0.01,0.24,0.02s0.16,0.02,0.23,0.03s0.14,0.03,0.2,0.04v1.25v1.25c-0.07-0.02-0.15-0.04-0.24-0.06
			c-0.09-0.02-0.2-0.03-0.31-0.05c-0.12-0.02-0.23-0.03-0.34-0.03c-0.11-0.01-0.21-0.01-0.31-0.01c-0.21,0-0.4,0.02-0.59,0.07
			c-0.18,0.04-0.36,0.11-0.52,0.2c-0.16,0.09-0.31,0.2-0.44,0.32s-0.24,0.27-0.33,0.42c-0.09,0.16-0.16,0.33-0.21,0.51
			c-0.05,0.18-0.07,0.38-0.07,0.59v2.87v2.87h-1.41H251.43z"/>
		<path class="st1" d="M265.29,158.02c-0.21,0-0.4-0.03-0.58-0.1c-0.18-0.07-0.34-0.17-0.49-0.31c-0.15-0.14-0.26-0.29-0.33-0.46
			c-0.07-0.17-0.11-0.35-0.11-0.55c0-0.19,0.04-0.37,0.11-0.54s0.19-0.32,0.33-0.46c0.15-0.14,0.31-0.24,0.49-0.31
			c0.18-0.07,0.37-0.11,0.58-0.11c0.21,0,0.4,0.04,0.58,0.11c0.18,0.07,0.34,0.18,0.49,0.31c0.15,0.14,0.26,0.29,0.33,0.46
			s0.11,0.35,0.11,0.54c0,0.2-0.04,0.38-0.11,0.55c-0.07,0.17-0.19,0.32-0.33,0.46c-0.15,0.14-0.31,0.24-0.49,0.31
			C265.69,157.98,265.5,158.02,265.29,158.02z M263.87,169.47v-5.07v-5.07h1.41h1.41v5.07v5.07h-1.41H263.87z"/>
		<path class="st1" d="M278.36,169.67c-0.52,0-1-0.06-1.45-0.17c-0.45-0.11-0.86-0.28-1.23-0.5c-0.37-0.22-0.7-0.49-0.99-0.79
			c-0.29-0.31-0.53-0.66-0.73-1.05c-0.2-0.39-0.35-0.82-0.45-1.27c-0.1-0.45-0.15-0.94-0.15-1.45c0-0.52,0.05-1.01,0.15-1.46
			c0.1-0.46,0.25-0.88,0.45-1.28c0.2-0.39,0.45-0.74,0.73-1.05c0.29-0.31,0.62-0.57,0.99-0.79c0.37-0.22,0.78-0.39,1.22-0.5
			c0.44-0.11,0.92-0.17,1.43-0.17c0.44,0,0.86,0.04,1.25,0.12s0.75,0.2,1.08,0.36s0.63,0.35,0.89,0.58
			c0.26,0.23,0.49,0.48,0.68,0.77s0.34,0.61,0.45,0.95c0.11,0.34,0.17,0.71,0.19,1.1h-1.33h-1.33c-0.04-0.25-0.11-0.48-0.2-0.69
			s-0.23-0.38-0.39-0.54c-0.16-0.16-0.34-0.27-0.55-0.35c-0.21-0.08-0.44-0.12-0.7-0.12c-0.22,0-0.42,0.03-0.61,0.09
			c-0.19,0.06-0.37,0.15-0.53,0.27c-0.16,0.12-0.31,0.26-0.43,0.43c-0.13,0.17-0.23,0.37-0.32,0.59c-0.09,0.22-0.16,0.47-0.2,0.75
			c-0.05,0.27-0.07,0.57-0.07,0.89c0,0.32,0.02,0.62,0.07,0.9c0.04,0.28,0.11,0.53,0.2,0.75c0.09,0.23,0.2,0.43,0.32,0.6
			c0.13,0.17,0.27,0.32,0.43,0.44c0.16,0.12,0.34,0.21,0.53,0.27c0.19,0.06,0.39,0.09,0.61,0.09c0.16,0,0.31-0.02,0.46-0.05
			c0.14-0.03,0.28-0.08,0.41-0.15c0.13-0.07,0.25-0.15,0.35-0.24c0.11-0.1,0.2-0.21,0.29-0.33c0.08-0.13,0.15-0.27,0.21-0.42
			c0.06-0.15,0.1-0.32,0.12-0.5h1.33h1.33c-0.02,0.39-0.09,0.75-0.19,1.09c-0.11,0.34-0.25,0.66-0.44,0.95
			c-0.19,0.29-0.41,0.56-0.67,0.79c-0.26,0.23-0.55,0.43-0.88,0.59c-0.33,0.17-0.69,0.29-1.08,0.37
			C279.23,169.63,278.81,169.67,278.36,169.67z"/>
		<path class="st1" d="M292.43,169.67c-0.32,0-0.63-0.03-0.92-0.09c-0.29-0.06-0.56-0.14-0.81-0.26c-0.25-0.11-0.48-0.25-0.68-0.42
			c-0.2-0.17-0.37-0.36-0.52-0.59c-0.15-0.22-0.26-0.47-0.33-0.75c-0.07-0.28-0.11-0.59-0.11-0.92c0-0.28,0.03-0.54,0.08-0.78
			c0.05-0.24,0.13-0.45,0.23-0.64c0.1-0.19,0.23-0.36,0.37-0.52s0.3-0.29,0.48-0.41c0.18-0.12,0.37-0.22,0.57-0.31
			s0.42-0.16,0.65-0.22c0.23-0.06,0.46-0.11,0.7-0.15c0.24-0.04,0.49-0.07,0.74-0.1c0.3-0.03,0.56-0.06,0.8-0.09
			c0.24-0.03,0.45-0.06,0.63-0.08c0.18-0.03,0.34-0.06,0.47-0.1s0.24-0.09,0.32-0.14c0.08-0.06,0.14-0.12,0.18-0.2
			c0.04-0.08,0.06-0.18,0.06-0.28v-0.02v-0.02c0-0.21-0.03-0.39-0.1-0.56c-0.07-0.16-0.16-0.3-0.29-0.41
			c-0.13-0.11-0.29-0.2-0.47-0.26s-0.4-0.09-0.64-0.09c-0.25,0-0.48,0.03-0.68,0.08s-0.38,0.14-0.53,0.25
			c-0.15,0.11-0.27,0.24-0.37,0.38c-0.1,0.14-0.17,0.29-0.22,0.46l-1.3-0.11l-1.3-0.11c0.07-0.31,0.17-0.6,0.3-0.86
			c0.13-0.27,0.29-0.51,0.49-0.74c0.19-0.23,0.42-0.43,0.67-0.6c0.25-0.17,0.53-0.32,0.84-0.44c0.31-0.12,0.64-0.21,0.99-0.27
			s0.74-0.09,1.14-0.09c0.28,0,0.56,0.02,0.83,0.05c0.27,0.03,0.53,0.08,0.79,0.15c0.26,0.07,0.5,0.15,0.73,0.25
			c0.23,0.1,0.45,0.22,0.65,0.36c0.2,0.14,0.38,0.3,0.54,0.47c0.16,0.18,0.3,0.37,0.41,0.59c0.12,0.22,0.2,0.46,0.26,0.71
			s0.09,0.54,0.09,0.84v3.42v3.42h-1.33h-1.33v-0.7v-0.7h-0.04h-0.04c-0.08,0.16-0.18,0.31-0.29,0.45
			c-0.11,0.14-0.23,0.27-0.37,0.39s-0.29,0.23-0.45,0.32c-0.16,0.09-0.34,0.17-0.53,0.24c-0.19,0.07-0.4,0.12-0.62,0.15
			C292.92,169.65,292.68,169.67,292.43,169.67z M293.24,167.72c0.21,0,0.4-0.02,0.59-0.06c0.18-0.04,0.35-0.1,0.51-0.19
			c0.16-0.08,0.3-0.18,0.42-0.29c0.12-0.11,0.23-0.24,0.32-0.38c0.09-0.14,0.16-0.29,0.2-0.45c0.05-0.16,0.07-0.33,0.07-0.51v-0.54
			v-0.54c-0.04,0.03-0.1,0.06-0.16,0.08c-0.06,0.03-0.13,0.05-0.2,0.07s-0.16,0.05-0.24,0.07c-0.09,0.02-0.18,0.04-0.27,0.06
			c-0.1,0.02-0.19,0.04-0.29,0.05c-0.09,0.02-0.19,0.03-0.28,0.05s-0.18,0.03-0.27,0.04c-0.09,0.01-0.17,0.02-0.24,0.04
			c-0.17,0.02-0.32,0.06-0.46,0.09c-0.14,0.04-0.28,0.08-0.4,0.14c-0.12,0.05-0.23,0.11-0.33,0.19c-0.1,0.07-0.18,0.15-0.25,0.24
			c-0.07,0.09-0.12,0.19-0.15,0.3c-0.03,0.11-0.05,0.23-0.05,0.36c0,0.19,0.03,0.36,0.1,0.51c0.07,0.15,0.17,0.27,0.31,0.37
			c0.14,0.1,0.3,0.17,0.48,0.22S293.02,167.72,293.24,167.72z"/>
		<path class="st1" d="M314.38,169.47v-6.77v-6.77h1.43h1.43v5.59v5.59h2.9h2.9v1.18v1.18h-4.33H314.38z"/>
		<path class="st1" d="M331.14,158.02c-0.21,0-0.4-0.03-0.58-0.1c-0.18-0.07-0.34-0.17-0.49-0.31c-0.15-0.14-0.26-0.29-0.33-0.46
			c-0.07-0.17-0.11-0.35-0.11-0.55c0-0.19,0.04-0.37,0.11-0.54s0.19-0.32,0.33-0.46c0.15-0.14,0.31-0.24,0.49-0.31
			s0.37-0.11,0.58-0.11c0.21,0,0.4,0.04,0.58,0.11c0.18,0.07,0.34,0.18,0.49,0.31c0.15,0.14,0.26,0.29,0.33,0.46
			s0.11,0.35,0.11,0.54c0,0.2-0.04,0.38-0.11,0.55c-0.07,0.17-0.19,0.32-0.33,0.46c-0.15,0.14-0.31,0.24-0.49,0.31
			C331.54,157.98,331.34,158.02,331.14,158.02z M329.72,169.47v-5.07v-5.07h1.41h1.41v5.07v5.07h-1.41H329.72z"/>
		<path class="st1" d="M349.08,159.32l-1.77,5.07l-1.77,5.07h-1.59h-1.59l-1.77-5.07l-1.77-5.07h1.49h1.49l1.05,3.63l1.05,3.63h0.05
			H344l1.05-3.63l1.05-3.63h1.49H349.08z"/>
		<path class="st1" d="M359.65,169.67c-0.52,0-1.01-0.05-1.46-0.16c-0.45-0.11-0.86-0.27-1.24-0.48c-0.38-0.21-0.71-0.47-1-0.77
			s-0.53-0.65-0.74-1.04c-0.2-0.39-0.35-0.82-0.46-1.28c-0.1-0.46-0.15-0.96-0.15-1.5c0-0.52,0.05-1.01,0.15-1.47
			c0.1-0.46,0.25-0.88,0.46-1.28c0.2-0.39,0.45-0.74,0.73-1.05c0.29-0.31,0.61-0.57,0.98-0.79c0.37-0.22,0.77-0.38,1.2-0.49
			c0.43-0.11,0.9-0.17,1.4-0.17c0.34,0,0.66,0.03,0.97,0.08c0.31,0.05,0.61,0.13,0.9,0.24c0.29,0.11,0.56,0.24,0.82,0.4
			s0.49,0.35,0.71,0.56c0.22,0.21,0.41,0.45,0.58,0.72s0.31,0.56,0.44,0.89c0.12,0.32,0.21,0.67,0.27,1.05
			c0.06,0.38,0.09,0.78,0.09,1.21v0.39v0.39h-4.28h-4.28v-0.87v-0.87h2.96h2.96c0-0.2-0.02-0.39-0.07-0.57
			c-0.04-0.18-0.11-0.35-0.2-0.5c-0.09-0.16-0.19-0.3-0.31-0.42c-0.12-0.12-0.26-0.23-0.42-0.32c-0.16-0.09-0.32-0.16-0.5-0.2
			c-0.18-0.04-0.37-0.07-0.58-0.07c-0.21,0-0.41,0.02-0.6,0.07c-0.19,0.05-0.37,0.12-0.53,0.22c-0.16,0.1-0.31,0.21-0.44,0.34
			c-0.13,0.13-0.24,0.28-0.33,0.44c-0.09,0.16-0.16,0.34-0.21,0.52c-0.05,0.18-0.07,0.37-0.08,0.57v0.83v0.83
			c0,0.25,0.02,0.48,0.07,0.7c0.05,0.22,0.12,0.42,0.21,0.6c0.09,0.18,0.21,0.34,0.34,0.49s0.29,0.26,0.46,0.36
			c0.17,0.1,0.36,0.17,0.56,0.22c0.2,0.05,0.42,0.07,0.66,0.07c0.16,0,0.31-0.01,0.45-0.03c0.14-0.02,0.28-0.06,0.41-0.1
			c0.13-0.04,0.25-0.1,0.36-0.16s0.21-0.14,0.31-0.23c0.09-0.09,0.17-0.19,0.24-0.29s0.13-0.23,0.18-0.35l1.3,0.09l1.3,0.09
			c-0.07,0.31-0.17,0.61-0.3,0.88c-0.14,0.27-0.3,0.52-0.51,0.76c-0.2,0.23-0.44,0.44-0.7,0.62c-0.26,0.18-0.55,0.34-0.87,0.46
			c-0.32,0.13-0.67,0.23-1.03,0.29C360.46,169.64,360.07,169.67,359.65,169.67z"/>
		<path class="st1" d="M375.57,169.67c-0.52,0-1-0.06-1.45-0.17c-0.45-0.11-0.86-0.28-1.23-0.5c-0.37-0.22-0.7-0.49-0.99-0.79
			c-0.29-0.31-0.53-0.66-0.73-1.05c-0.2-0.39-0.35-0.82-0.45-1.27c-0.1-0.45-0.15-0.94-0.15-1.45c0-0.52,0.05-1.01,0.15-1.46
			s0.25-0.88,0.45-1.28c0.2-0.39,0.45-0.74,0.73-1.05c0.29-0.31,0.62-0.57,0.99-0.79c0.37-0.22,0.78-0.39,1.22-0.5
			c0.44-0.11,0.92-0.17,1.43-0.17c0.44,0,0.86,0.04,1.25,0.12s0.75,0.2,1.08,0.36c0.33,0.16,0.63,0.35,0.89,0.58
			c0.26,0.23,0.49,0.48,0.68,0.77s0.34,0.61,0.45,0.95c0.11,0.34,0.17,0.71,0.19,1.1h-1.33h-1.33c-0.04-0.25-0.11-0.48-0.2-0.69
			s-0.23-0.38-0.39-0.54c-0.16-0.16-0.34-0.27-0.55-0.35c-0.21-0.08-0.44-0.12-0.7-0.12c-0.22,0-0.42,0.03-0.61,0.09
			c-0.19,0.06-0.37,0.15-0.53,0.27c-0.16,0.12-0.31,0.26-0.43,0.43c-0.13,0.17-0.23,0.37-0.32,0.59c-0.09,0.22-0.16,0.47-0.2,0.75
			c-0.05,0.27-0.07,0.57-0.07,0.89c0,0.32,0.02,0.62,0.07,0.9c0.04,0.28,0.11,0.53,0.2,0.75c0.09,0.23,0.2,0.43,0.32,0.6
			c0.13,0.17,0.27,0.32,0.43,0.44c0.16,0.12,0.34,0.21,0.53,0.27c0.19,0.06,0.39,0.09,0.61,0.09c0.16,0,0.31-0.02,0.46-0.05
			s0.28-0.08,0.41-0.15c0.13-0.07,0.25-0.15,0.35-0.24c0.11-0.1,0.2-0.21,0.29-0.33c0.08-0.13,0.15-0.27,0.21-0.42
			c0.06-0.15,0.1-0.32,0.12-0.5h1.33h1.33c-0.02,0.39-0.09,0.75-0.19,1.09c-0.11,0.34-0.25,0.66-0.44,0.95
			c-0.19,0.29-0.41,0.56-0.67,0.79c-0.26,0.23-0.55,0.43-0.88,0.59c-0.33,0.17-0.69,0.29-1.08,0.37S376.02,169.67,375.57,169.67z"/>
		<path class="st1" d="M389.65,169.67c-0.32,0-0.63-0.03-0.92-0.09c-0.29-0.06-0.56-0.14-0.81-0.26c-0.25-0.11-0.48-0.25-0.68-0.42
			c-0.2-0.17-0.37-0.36-0.52-0.59c-0.15-0.22-0.26-0.47-0.33-0.75c-0.07-0.28-0.11-0.59-0.11-0.92c0-0.28,0.03-0.54,0.08-0.78
			c0.05-0.24,0.13-0.45,0.23-0.64c0.1-0.19,0.23-0.36,0.37-0.52c0.14-0.15,0.3-0.29,0.48-0.41c0.18-0.12,0.37-0.22,0.57-0.31
			c0.2-0.09,0.42-0.16,0.65-0.22c0.23-0.06,0.46-0.11,0.7-0.15s0.49-0.07,0.74-0.1c0.3-0.03,0.56-0.06,0.8-0.09
			c0.24-0.03,0.45-0.06,0.63-0.08c0.18-0.03,0.34-0.06,0.47-0.1c0.13-0.04,0.24-0.09,0.32-0.14c0.08-0.06,0.14-0.12,0.18-0.2
			c0.04-0.08,0.06-0.18,0.06-0.28v-0.02v-0.02c0-0.21-0.03-0.39-0.1-0.56c-0.07-0.16-0.16-0.3-0.29-0.41
			c-0.13-0.11-0.29-0.2-0.47-0.26s-0.4-0.09-0.64-0.09c-0.25,0-0.48,0.03-0.68,0.08c-0.2,0.06-0.38,0.14-0.53,0.25
			c-0.15,0.11-0.27,0.24-0.37,0.38c-0.1,0.14-0.17,0.29-0.22,0.46l-1.3-0.11l-1.3-0.11c0.07-0.31,0.17-0.6,0.3-0.86
			c0.13-0.27,0.29-0.51,0.49-0.74c0.19-0.23,0.42-0.43,0.67-0.6c0.25-0.17,0.53-0.32,0.84-0.44c0.31-0.12,0.64-0.21,0.99-0.27
			c0.36-0.06,0.74-0.09,1.14-0.09c0.28,0,0.56,0.02,0.83,0.05s0.53,0.08,0.79,0.15c0.26,0.07,0.5,0.15,0.73,0.25
			s0.45,0.22,0.65,0.36c0.2,0.14,0.38,0.3,0.54,0.47c0.16,0.18,0.3,0.37,0.41,0.59c0.12,0.22,0.2,0.46,0.26,0.71
			s0.09,0.54,0.09,0.84v3.42v3.42h-1.33h-1.33v-0.7v-0.7h-0.04h-0.04c-0.08,0.16-0.18,0.31-0.29,0.45
			c-0.11,0.14-0.23,0.27-0.37,0.39c-0.14,0.12-0.29,0.23-0.45,0.32c-0.16,0.09-0.34,0.17-0.53,0.24c-0.19,0.07-0.4,0.12-0.62,0.15
			C390.13,169.65,389.9,169.67,389.65,169.67z M390.45,167.72c0.21,0,0.4-0.02,0.59-0.06c0.18-0.04,0.35-0.1,0.51-0.19
			c0.16-0.08,0.3-0.18,0.42-0.29s0.23-0.24,0.32-0.38c0.09-0.14,0.16-0.29,0.2-0.45c0.05-0.16,0.07-0.33,0.07-0.51v-0.54v-0.54
			c-0.04,0.03-0.1,0.06-0.16,0.08c-0.06,0.03-0.13,0.05-0.2,0.07c-0.08,0.02-0.16,0.05-0.24,0.07s-0.18,0.04-0.27,0.06
			c-0.1,0.02-0.19,0.04-0.29,0.05c-0.09,0.02-0.19,0.03-0.28,0.05s-0.18,0.03-0.27,0.04s-0.17,0.02-0.24,0.04
			c-0.17,0.02-0.32,0.06-0.46,0.09c-0.14,0.04-0.28,0.08-0.4,0.14c-0.12,0.05-0.23,0.11-0.33,0.19c-0.1,0.07-0.18,0.15-0.25,0.24
			c-0.07,0.09-0.12,0.19-0.15,0.3c-0.03,0.11-0.05,0.23-0.05,0.36c0,0.19,0.03,0.36,0.1,0.51c0.07,0.15,0.17,0.27,0.31,0.37
			c0.14,0.1,0.3,0.17,0.48,0.22S390.23,167.72,390.45,167.72z"/>
		<path class="st1" d="M402.39,169.47v-5.07v-5.07h1.34h1.34v0.9v0.9h0.06h0.06c0.11-0.3,0.25-0.56,0.42-0.8
			c0.18-0.23,0.39-0.44,0.63-0.61c0.25-0.17,0.52-0.3,0.81-0.39c0.3-0.09,0.61-0.13,0.96-0.13c0.35,0,0.67,0.04,0.97,0.13
			c0.3,0.09,0.57,0.22,0.81,0.39c0.24,0.17,0.45,0.38,0.61,0.61c0.16,0.23,0.28,0.5,0.37,0.79h0.05h0.05
			c0.1-0.29,0.25-0.55,0.44-0.79c0.19-0.23,0.42-0.44,0.69-0.61c0.27-0.18,0.57-0.31,0.89-0.39c0.32-0.09,0.67-0.13,1.04-0.13
			c0.47,0,0.9,0.08,1.29,0.23s0.73,0.38,1.02,0.68c0.3,0.3,0.52,0.66,0.67,1.09c0.15,0.43,0.22,0.91,0.22,1.46v3.41v3.41h-1.4h-1.4
			v-3.14v-3.14c0-0.28-0.04-0.53-0.11-0.74c-0.07-0.21-0.19-0.39-0.34-0.53c-0.15-0.14-0.32-0.25-0.51-0.32
			c-0.19-0.07-0.39-0.11-0.62-0.11c-0.26,0-0.48,0.04-0.68,0.12c-0.2,0.08-0.37,0.2-0.51,0.36c-0.14,0.16-0.25,0.35-0.32,0.56
			c-0.07,0.21-0.11,0.45-0.11,0.72v3.1v3.1h-1.36h-1.36v-3.17v-3.17c0-0.25-0.04-0.47-0.11-0.67c-0.07-0.2-0.18-0.37-0.32-0.52
			c-0.14-0.15-0.31-0.26-0.49-0.33c-0.19-0.07-0.4-0.11-0.63-0.11c-0.16,0-0.3,0.02-0.45,0.06s-0.27,0.1-0.4,0.18
			c-0.12,0.08-0.24,0.17-0.34,0.28c-0.1,0.11-0.18,0.23-0.26,0.37c-0.07,0.14-0.13,0.29-0.16,0.46s-0.05,0.34-0.05,0.53v3.05v3.05
			h-1.41H402.39z"/>
		<path class="st1" d="M432.64,162.22l-1.29,0.08l-1.29,0.08c-0.02-0.11-0.06-0.22-0.11-0.31c-0.05-0.1-0.11-0.19-0.18-0.28
			c-0.07-0.09-0.16-0.17-0.25-0.24c-0.1-0.07-0.2-0.13-0.32-0.19c-0.12-0.05-0.25-0.09-0.39-0.12s-0.29-0.04-0.45-0.04
			c-0.22,0-0.42,0.02-0.6,0.07s-0.35,0.11-0.5,0.21c-0.15,0.09-0.26,0.2-0.34,0.32s-0.11,0.26-0.11,0.41c0,0.12,0.02,0.23,0.07,0.33
			c0.05,0.1,0.12,0.2,0.22,0.28c0.1,0.08,0.23,0.16,0.4,0.23c0.17,0.07,0.37,0.13,0.6,0.18l0.92,0.18l0.92,0.18
			c0.49,0.1,0.92,0.23,1.29,0.4s0.67,0.36,0.92,0.58c0.24,0.22,0.42,0.48,0.54,0.78c0.12,0.3,0.18,0.63,0.18,0.99
			c0,0.33-0.05,0.64-0.15,0.94c-0.1,0.29-0.24,0.56-0.44,0.81c-0.19,0.25-0.43,0.47-0.69,0.67s-0.57,0.36-0.91,0.5
			c-0.34,0.14-0.7,0.24-1.09,0.31c-0.39,0.07-0.8,0.1-1.25,0.1c-0.67,0-1.28-0.07-1.81-0.21c-0.53-0.14-1-0.35-1.4-0.63
			c-0.4-0.28-0.71-0.61-0.95-1c-0.23-0.38-0.38-0.82-0.45-1.3l1.38-0.07l1.38-0.07c0.04,0.2,0.11,0.38,0.21,0.54
			c0.1,0.16,0.23,0.29,0.39,0.39c0.16,0.11,0.34,0.19,0.55,0.24c0.21,0.05,0.43,0.08,0.68,0.08c0.25,0,0.47-0.02,0.67-0.07
			c0.2-0.05,0.37-0.12,0.53-0.22c0.15-0.1,0.26-0.21,0.34-0.33c0.08-0.12,0.12-0.26,0.12-0.41c0-0.13-0.03-0.24-0.08-0.35
			c-0.05-0.11-0.13-0.2-0.24-0.28c-0.11-0.08-0.24-0.15-0.4-0.22c-0.16-0.06-0.35-0.12-0.58-0.16l-0.88-0.18l-0.88-0.18
			c-0.5-0.1-0.93-0.23-1.3-0.41c-0.37-0.17-0.67-0.38-0.91-0.62c-0.24-0.24-0.42-0.52-0.54-0.83c-0.12-0.31-0.18-0.66-0.18-1.04
			c0-0.33,0.04-0.63,0.13-0.91c0.09-0.28,0.22-0.54,0.4-0.77c0.18-0.24,0.39-0.44,0.64-0.63c0.25-0.18,0.54-0.34,0.86-0.46
			c0.32-0.13,0.67-0.22,1.05-0.29c0.38-0.06,0.78-0.1,1.22-0.1c0.64,0,1.21,0.07,1.72,0.2c0.5,0.14,0.94,0.34,1.31,0.61
			c0.37,0.27,0.66,0.59,0.88,0.96C432.44,161.33,432.58,161.75,432.64,162.22z"/>
		<path class="st1" d="M448.69,169.47v-6.77v-6.77h4.56h4.56v1.18v1.18h-3.13h-3.13v1.61v1.61h2.89h2.89v1.18v1.18h-2.89h-2.89v1.62
			v1.62h3.14h3.14v1.18v1.18h-4.57H448.69z"/>
		<path class="st1" d="M467.22,159.32l0.93,1.77l0.93,1.77l0.96-1.77l0.96-1.77h1.44h1.44l-1.47,2.54l-1.47,2.54l1.51,2.54
			l1.51,2.54h-1.44h-1.44l-1-1.75l-1-1.75l-0.98,1.75l-0.98,1.75h-1.45h-1.45l1.51-2.54l1.51-2.54l-1.45-2.54l-1.45-2.54h1.45
			H467.22z"/>
		<path class="st1" d="M480.39,173.28v-6.98v-6.98h1.39h1.39v0.85v0.85h0.06h0.06c0.06-0.14,0.14-0.27,0.23-0.41
			c0.09-0.14,0.19-0.28,0.31-0.42c0.12-0.14,0.25-0.27,0.41-0.39c0.15-0.12,0.33-0.23,0.52-0.32c0.19-0.1,0.4-0.17,0.64-0.22
			c0.24-0.05,0.5-0.07,0.78-0.07c0.37,0,0.73,0.05,1.07,0.14c0.34,0.1,0.67,0.24,0.98,0.43c0.31,0.19,0.59,0.43,0.84,0.72
			c0.25,0.29,0.47,0.63,0.66,1.01c0.19,0.39,0.33,0.82,0.42,1.31c0.09,0.48,0.14,1.02,0.14,1.6c0,0.57-0.05,1.09-0.14,1.57
			c-0.09,0.48-0.23,0.91-0.41,1.3c-0.18,0.39-0.39,0.73-0.64,1.02c-0.25,0.29-0.53,0.54-0.84,0.74c-0.31,0.2-0.64,0.35-0.99,0.45
			c-0.35,0.1-0.72,0.15-1.1,0.15c-0.27,0-0.52-0.02-0.76-0.07c-0.23-0.05-0.44-0.11-0.63-0.2c-0.19-0.09-0.36-0.19-0.52-0.31
			c-0.16-0.11-0.29-0.24-0.42-0.38c-0.12-0.14-0.23-0.28-0.32-0.42c-0.09-0.14-0.17-0.28-0.23-0.42h-0.04h-0.04v2.72v2.72h-1.41
			H480.39z M483.14,164.4c0,0.3,0.02,0.58,0.06,0.85c0.04,0.26,0.11,0.51,0.19,0.73c0.08,0.22,0.19,0.42,0.31,0.6
			s0.26,0.32,0.42,0.45c0.16,0.12,0.33,0.22,0.53,0.28s0.4,0.09,0.63,0.09c0.23,0,0.44-0.03,0.63-0.1c0.19-0.06,0.37-0.16,0.53-0.28
			c0.16-0.13,0.3-0.28,0.42-0.45c0.12-0.18,0.22-0.38,0.31-0.6c0.08-0.23,0.14-0.47,0.19-0.73s0.06-0.54,0.06-0.83
			c0-0.29-0.02-0.57-0.06-0.83s-0.1-0.5-0.18-0.72c-0.08-0.22-0.18-0.42-0.3-0.59c-0.12-0.17-0.26-0.32-0.42-0.45
			c-0.16-0.13-0.33-0.22-0.53-0.28c-0.19-0.06-0.41-0.09-0.64-0.09c-0.23,0-0.44,0.03-0.63,0.09c-0.19,0.06-0.37,0.15-0.53,0.27
			c-0.16,0.12-0.3,0.27-0.42,0.44c-0.12,0.17-0.22,0.37-0.31,0.59c-0.08,0.22-0.15,0.46-0.19,0.73
			C483.16,163.82,483.14,164.1,483.14,164.4z"/>
		<path class="st1" d="M501.58,169.67c-0.51,0-0.99-0.05-1.43-0.16c-0.44-0.11-0.85-0.27-1.22-0.49c-0.37-0.22-0.7-0.48-0.99-0.79
			c-0.29-0.31-0.53-0.66-0.74-1.05s-0.35-0.82-0.46-1.27c-0.1-0.46-0.15-0.94-0.15-1.46c0-0.52,0.05-1.02,0.15-1.47
			c0.1-0.46,0.25-0.88,0.46-1.28c0.2-0.39,0.45-0.74,0.74-1.05c0.29-0.31,0.62-0.57,0.99-0.79c0.37-0.22,0.78-0.38,1.22-0.49
			c0.44-0.11,0.92-0.16,1.43-0.16c0.51,0,0.99,0.05,1.44,0.16c0.44,0.11,0.85,0.27,1.22,0.49c0.37,0.22,0.7,0.48,0.99,0.79
			c0.29,0.31,0.53,0.66,0.74,1.05c0.2,0.39,0.35,0.82,0.46,1.28c0.1,0.46,0.15,0.95,0.15,1.47c0,0.52-0.05,1.01-0.15,1.46
			c-0.1,0.46-0.25,0.88-0.46,1.27s-0.45,0.74-0.74,1.05c-0.29,0.31-0.62,0.57-0.99,0.79c-0.37,0.22-0.78,0.38-1.22,0.49
			C502.57,169.62,502.09,169.67,501.58,169.67z M501.59,167.49c0.23,0,0.45-0.03,0.64-0.1c0.2-0.07,0.37-0.17,0.53-0.3
			c0.16-0.13,0.29-0.29,0.41-0.47s0.22-0.39,0.3-0.62c0.08-0.23,0.14-0.48,0.18-0.74c0.04-0.26,0.06-0.54,0.06-0.84
			s-0.02-0.57-0.06-0.84c-0.04-0.26-0.1-0.51-0.18-0.74c-0.08-0.23-0.18-0.44-0.3-0.62c-0.12-0.18-0.26-0.34-0.41-0.48
			c-0.16-0.13-0.33-0.24-0.53-0.3c-0.2-0.07-0.41-0.1-0.64-0.1c-0.24,0-0.45,0.03-0.65,0.1c-0.2,0.07-0.38,0.17-0.54,0.3
			c-0.16,0.13-0.3,0.29-0.42,0.48c-0.12,0.18-0.22,0.39-0.3,0.62c-0.08,0.23-0.14,0.48-0.18,0.74c-0.04,0.26-0.06,0.54-0.06,0.84
			s0.02,0.57,0.06,0.84c0.04,0.26,0.1,0.51,0.18,0.74c0.08,0.23,0.18,0.44,0.3,0.62c0.12,0.18,0.26,0.34,0.42,0.47
			c0.16,0.13,0.34,0.23,0.54,0.3S501.36,167.49,501.59,167.49z"/>
	</g>
</g>
</svg>
